<svg id="visual" viewBox="0 0 900 600" width="900" height="600" xmlns="http://www.w3.org/2000/svg" xmlns:xlink="http://www.w3.org/1999/xlink" version="1.1"><rect x="0" y="0" width="900" height="600" fill="#FFFFFF"></rect><path d="M480 0L329 0L329 86L344 86L344 171L497 171L497 257L371 257L371 343L508 343L508 429L429 429L429 514L444 514L444 600L0 600L0 514L0 514L0 429L0 429L0 343L0 343L0 257L0 257L0 171L0 171L0 86L0 86L0 0L0 0Z" fill="#9900ff"></path><path d="M308 0L289 0L289 86L333 86L333 171L242 171L242 257L263 257L263 343L212 343L212 429L319 429L319 514L320 514L320 600L0 600L0 514L0 514L0 429L0 429L0 343L0 343L0 257L0 257L0 171L0 171L0 86L0 86L0 0L0 0Z" fill="#7700c6"></path><path d="M128 0L209 0L209 86L83 86L83 171L86 171L86 257L161 257L161 343L173 343L173 429L152 429L152 514L109 514L109 600L0 600L0 514L0 514L0 429L0 429L0 343L0 343L0 257L0 257L0 171L0 171L0 86L0 86L0 0L0 0Z" fill="#560090"></path></svg>