<svg id="visual" viewBox="0 0 900 600" width="900" height="600" xmlns="http://www.w3.org/2000/svg" xmlns:xlink="http://www.w3.org/1999/xlink" version="1.1"><rect width="900" height="600" fill="#FFFFFF"></rect><g><g transform="translate(639 91)"><path d="M105.1 -34C117.4 3.7 95.6 52.6 59.3 78.2C23.1 103.7 -27.7 105.8 -62.4 81.6C-97.1 57.4 -115.8 6.9 -102.7 -31.9C-89.6 -70.7 -44.8 -97.8 0.8 -98.1C46.4 -98.3 92.8 -71.8 105.1 -34Z" stroke="#F7760E" fill="none" stroke-width="20"></path></g><g transform="translate(387 588)"><path d="M66.2 -21.2C75.4 6.8 65.3 41.4 42.9 57.3C20.4 73.2 -14.3 70.4 -39.9 52.4C-65.4 34.4 -81.7 1.3 -73.6 -25.3C-65.4 -51.9 -32.7 -71.9 -2.1 -71.3C28.5 -70.6 57 -49.2 66.2 -21.2Z" stroke="#F7760E" fill="none" stroke-width="20"></path></g><g transform="translate(142 200)"><path d="M82.4 -26.3C93.2 6.5 79.1 48 47.4 72.8C15.7 97.6 -33.5 105.7 -65.8 83.9C-98 62 -113.3 10.1 -99.5 -26.8C-85.7 -63.8 -42.8 -85.8 -3.5 -84.6C35.8 -83.5 71.6 -59.2 82.4 -26.3Z" stroke="#F7760E" fill="none" stroke-width="20"></path></g></g></svg>