<svg id="visual" viewBox="0 0 900 600" width="900" height="600" xmlns="http://www.w3.org/2000/svg" xmlns:xlink="http://www.w3.org/1999/xlink" version="1.1"><rect x="0" y="0" width="900" height="600" fill="#FFFFFF"></rect><defs><linearGradient id="grad1_0" x1="33.3%" y1="100%" x2="100%" y2="0%"><stop offset="20%" stop-color="#ffffff" stop-opacity="1"></stop><stop offset="80%" stop-color="#ffffff" stop-opacity="1"></stop></linearGradient></defs><defs><linearGradient id="grad2_0" x1="0%" y1="100%" x2="66.7%" y2="0%"><stop offset="20%" stop-color="#ffffff" stop-opacity="1"></stop><stop offset="80%" stop-color="#ffffff" stop-opacity="1"></stop></linearGradient></defs><g transform="translate(900, 600)"><path d="M-432.7 0C-418.6 -57.2 -404.5 -114.3 -374.2 -155C-343.8 -195.7 -297.2 -219.9 -263 -263C-228.9 -306.2 -207.3 -368.3 -165.6 -399.7C-123.8 -431.2 -61.9 -431.9 0 -432.7L0 0Z" fill="#FBAE3C"></path></g><g transform="translate(0, 0)"><path d="M432.7 0C406.2 46.8 379.7 93.5 364 150.8C348.3 208 343.3 275.7 305.9 305.9C268.6 336.1 198.8 328.8 142.4 343.7C86 358.6 43 395.6 0 432.7L0 0Z" fill="#FBAE3C"></path></g></svg>