<svg id="visual" viewBox="0 0 900 600" width="900" height="600" xmlns="http://www.w3.org/2000/svg" xmlns:xlink="http://www.w3.org/1999/xlink" version="1.1"><rect x="0" y="0" width="900" height="600" fill="#ffffff"></rect><path d="M0 440L21.5 444.7C43 449.3 86 458.7 128.8 464C171.7 469.3 214.3 470.7 257.2 464.8C300 459 343 446 385.8 433.7C428.7 421.3 471.3 409.7 514.2 403.3C557 397 600 396 642.8 411.7C685.7 427.3 728.3 459.7 771.2 474.2C814 488.7 857 485.3 878.5 483.7L900 482L900 601L878.5 601C857 601 814 601 771.2 601C728.3 601 685.7 601 642.8 601C600 601 557 601 514.2 601C471.3 601 428.7 601 385.8 601C343 601 300 601 257.2 601C214.3 601 171.7 601 128.8 601C86 601 43 601 21.5 601L0 601Z" fill="#fa7268"></path><path d="M0 427L21.5 432.3C43 437.7 86 448.3 128.8 441.2C171.7 434 214.3 409 257.2 391.5C300 374 343 364 385.8 378.3C428.7 392.7 471.3 431.3 514.2 455.8C557 480.3 600 490.7 642.8 493C685.7 495.3 728.3 489.7 771.2 489.7C814 489.7 857 495.3 878.5 498.2L900 501L900 601L878.5 601C857 601 814 601 771.2 601C728.3 601 685.7 601 642.8 601C600 601 557 601 514.2 601C471.3 601 428.7 601 385.8 601C343 601 300 601 257.2 601C214.3 601 171.7 601 128.8 601C86 601 43 601 21.5 601L0 601Z" fill="#ef5f67"></path><path d="M0 411L21.5 415C43 419 86 427 128.8 437.8C171.7 448.7 214.3 462.3 257.2 462C300 461.7 343 447.3 385.8 453.5C428.7 459.7 471.3 486.3 514.2 498C557 509.7 600 506.3 642.8 496.2C685.7 486 728.3 469 771.2 454C814 439 857 426 878.5 419.5L900 413L900 601L878.5 601C857 601 814 601 771.2 601C728.3 601 685.7 601 642.8 601C600 601 557 601 514.2 601C471.3 601 428.7 601 385.8 601C343 601 300 601 257.2 601C214.3 601 171.7 601 128.8 601C86 601 43 601 21.5 601L0 601Z" fill="#e34c67"></path><path d="M0 483L21.5 486.5C43 490 86 497 128.8 492.8C171.7 488.7 214.3 473.3 257.2 465.3C300 457.3 343 456.7 385.8 461.7C428.7 466.7 471.3 477.3 514.2 492.7C557 508 600 528 642.8 532.3C685.7 536.7 728.3 525.3 771.2 512.5C814 499.7 857 485.3 878.5 478.2L900 471L900 601L878.5 601C857 601 814 601 771.2 601C728.3 601 685.7 601 642.8 601C600 601 557 601 514.2 601C471.3 601 428.7 601 385.8 601C343 601 300 601 257.2 601C214.3 601 171.7 601 128.8 601C86 601 43 601 21.5 601L0 601Z" fill="#d53867"></path><path d="M0 502L21.5 515.7C43 529.3 86 556.7 128.8 560.7C171.7 564.7 214.3 545.3 257.2 534.3C300 523.3 343 520.7 385.8 528.3C428.7 536 471.3 554 514.2 567.2C557 580.3 600 588.7 642.8 581.8C685.7 575 728.3 553 771.2 547.3C814 541.7 857 552.3 878.5 557.7L900 563L900 601L878.5 601C857 601 814 601 771.2 601C728.3 601 685.7 601 642.8 601C600 601 557 601 514.2 601C471.3 601 428.7 601 385.8 601C343 601 300 601 257.2 601C214.3 601 171.7 601 128.8 601C86 601 43 601 21.5 601L0 601Z" fill="#c62368"></path></svg>